<svg width="1920" height="1080" xmlns="http://www.w3.org/2000/svg"><path d="m0 185 24.7 3.5c24.6 3.5 74 10.5 123.1 8.7 49.2-1.9 98.2-12.5 147.4-21.5 49.1-9 98.5-16.4 147.8-21.9 49.3-5.5 98.7-9.1 147.8-11 49.2-1.8 98.2-1.8 147.4 0 49.1 1.9 98.5 5.5 147.8 14.5 49.3 9 98.7 23.4 148 19.9s98.7-24.9 147.8-21.2c49.2 3.7 98.2 32.3 147.4 21.5 49.1-10.8 98.5-61.2 147.8-90 49.3-28.8 98.7-36.2 147.8-27.2 49.2 9 98.2 34.4 147.4 56 49.1 21.7 98.5 39.7 123.1 48.7l24.7 9V0H0z" fill="#191f29"/><path d="m0 314 24.7 32.5c24.6 32.5 74 97.5 123.1 110.2 49.2 12.6 98.2-27 147.4-19.9 49.1 7.2 98.5 61.2 147.8 91.7 49.3 30.5 98.7 37.5 147.8 24.8 49.2-12.6 98.2-45 147.4-59.3 49.1-14.3 98.5-10.7 147.8 23.5 49.3 34.2 98.7 98.8 148 80.8s98.7-118.6 147.8-169c49.2-50.3 98.2-50.3 147.4-28.6 49.1 21.6 98.5 65 147.8 59.6 49.3-5.3 98.7-59.3 147.8-66.6 49.2-7.4 98.2 32 147.4 68 49.1 36 98.5 68.6 123.1 85L1920 563V172l-24.7-9c-24.6-9-74-27-123.1-48.7-49.2-21.6-98.2-47-147.4-56-49.1-9-98.5-1.6-147.8 27.2-49.3 28.8-98.7 79.2-147.8 90-49.2 10.8-98.2-17.8-147.4-21.5-49.1-3.7-98.5 17.7-147.8 21.2-49.3 3.5-98.7-10.9-148-19.9-49.3-9-98.7-12.6-147.8-14.5-49.2-1.8-98.2-1.8-147.4 0-49.1 1.9-98.5 5.5-147.8 11-49.3 5.5-98.7 12.9-147.8 21.9-49.2 9-98.2 19.6-147.4 21.5-49.1 1.8-98.5-5.2-123.1-8.7L0 183z" fill="#263141"/><path d="m0 671 24.7 9c24.6 9 74 27 123.1 19.7 49.2-7.4 98.2-40 147.4-29.4C344.3 681 393.7 735 443 783.7c49.3 48.6 98.7 92 147.8 90.3 49.2-1.7 98.2-48.3 147.4-89.7C787.3 743 836.7 707 886 705.2c49.3-1.9 98.7 30.5 148 26.8 49.3-3.7 98.7-43.3 147.8-36.2 49.2 7.2 98.2 61.2 147.4 63 49.1 1.9 98.5-48.5 147.8-39.5 49.3 9 98.7 77.4 147.8 116.9 49.2 39.5 98.2 50.1 147.4 12.3 49.1-37.8 98.5-124.2 123.1-167.3L1920 638v-77l-24.7-16.3c-24.6-16.4-74-49-123.1-85-49.2-36-98.2-75.4-147.4-68-49.1 7.3-98.5 61.3-147.8 66.6-49.3 5.4-98.7-38-147.8-59.6-49.2-21.7-98.2-21.7-147.4 28.6-49.1 50.4-98.5 151-147.8 169-49.3 18-98.7-46.6-148-80.8-49.3-34.2-98.7-37.8-147.8-23.5-49.2 14.3-98.2 46.7-147.4 59.3-49.1 12.7-98.5 5.7-147.8-24.8-49.3-30.5-98.7-84.5-147.8-91.7-49.2-7.1-98.2 32.5-147.4 19.9C98.7 442 49.3 377 24.7 344.5L0 312z" fill="#3e4c5f"/><path d="m0 962 24.7 9c24.6 9 74 27 123.1 21.7 49.2-5.4 98.2-34 147.4-59.2 49.1-25.2 98.5-46.8 147.8-36 49.3 10.8 98.7 54.2 147.8 61.3C640 966 689 937 738.2 926.2c49.1-10.9 98.5-3.5 147.8-5.4 49.3-1.8 98.7-12.8 148-16.5 49.3-3.6 98.7 0 147.8 19.9 49.2 19.8 98.2 55.8 147.4 63 49.1 7.1 98.5-14.5 147.8-14.5 49.3 0 98.7 21.6 147.8 34.3 49.2 12.7 98.2 16.3 147.4 5.5 49.1-10.8 98.5-36.2 123.1-48.8L1920 951V636l-24.7 43.2c-24.6 43.1-74 129.5-123.1 167.3-49.2 37.8-98.2 27.2-147.4-12.3-49.1-39.5-98.5-107.9-147.8-116.9-49.3-9-98.7 41.4-147.8 39.5-49.2-1.8-98.2-55.8-147.4-63-49.1-7.1-98.5 32.5-147.8 36.2-49.3 3.7-98.7-28.7-148-26.8-49.3 1.8-98.7 37.8-147.8 79.1-49.2 41.4-98.2 88-147.4 89.7-49.1 1.7-98.5-41.7-147.8-90.3C393.7 733 344.3 679 295.2 668.3c-49.2-10.6-98.2 22-147.4 29.4C98.7 705 49.3 687 24.7 678L0 669z" fill="#263141"/><path d="M0 1081h1920V949l-24.7 12.7c-24.6 12.6-74 38-123.1 48.8-49.2 10.8-98.2 7.2-147.4-5.5-49.1-12.7-98.5-34.3-147.8-34.3-49.3 0-98.7 21.6-147.8 14.5-49.2-7.2-98.2-43.2-147.4-63-49.1-19.9-98.5-23.5-147.8-19.9-49.3 3.7-98.7 14.7-148 16.5-49.3 1.9-98.7-5.5-147.8 5.4C689 935 640 964 590.8 956.8c-49.1-7.1-98.5-50.5-147.8-61.3-49.3-10.8-98.7 10.8-147.8 36-49.2 25.2-98.2 53.8-147.4 59.2C98.7 996 49.3 978 24.7 969L0 960z" fill="#191f29"/></svg>