<svg id="visual" viewBox="0 0 1920 1080" width="1920" height="1080" xmlns="http://www.w3.org/2000/svg" xmlns:xlink="http://www.w3.org/1999/xlink" version="1.1"><path d="M0 185L24.7 188.5C49.3 192 98.7 199 147.8 197.2C197 195.3 246 184.7 295.2 175.7C344.3 166.7 393.7 159.3 443 153.8C492.3 148.3 541.7 144.7 590.8 142.8C640 141 689 141 738.2 142.8C787.3 144.7 836.7 148.3 886 157.3C935.3 166.3 984.7 180.7 1034 177.2C1083.3 173.7 1132.7 152.3 1181.8 156C1231 159.7 1280 188.3 1329.2 177.5C1378.3 166.7 1427.7 116.3 1477 87.5C1526.3 58.7 1575.7 51.3 1624.8 60.3C1674 69.3 1723 94.7 1772.2 116.3C1821.3 138 1870.7 156 1895.3 165L1920 174L1920 0L1895.3 0C1870.7 0 1821.3 0 1772.2 0C1723 0 1674 0 1624.8 0C1575.7 0 1526.3 0 1477 0C1427.7 0 1378.3 0 1329.2 0C1280 0 1231 0 1181.8 0C1132.7 0 1083.3 0 1034 0C984.7 0 935.3 0 886 0C836.7 0 787.3 0 738.2 0C689 0 640 0 590.8 0C541.7 0 492.3 0 443 0C393.7 0 344.3 0 295.2 0C246 0 197 0 147.8 0C98.7 0 49.3 0 24.7 0L0 0Z" fill="#191f29"></path><path d="M0 314L24.7 346.5C49.3 379 98.7 444 147.8 456.7C197 469.3 246 429.7 295.2 436.8C344.3 444 393.7 498 443 528.5C492.3 559 541.7 566 590.8 553.3C640 540.7 689 508.3 738.2 494C787.3 479.7 836.7 483.3 886 517.5C935.3 551.7 984.7 616.3 1034 598.3C1083.3 580.3 1132.7 479.7 1181.8 429.3C1231 379 1280 379 1329.2 400.7C1378.3 422.3 1427.7 465.7 1477 460.3C1526.3 455 1575.7 401 1624.8 393.7C1674 386.3 1723 425.7 1772.2 461.7C1821.3 497.7 1870.7 530.3 1895.3 546.7L1920 563L1920 172L1895.3 163C1870.7 154 1821.3 136 1772.2 114.3C1723 92.7 1674 67.3 1624.8 58.3C1575.7 49.3 1526.3 56.7 1477 85.5C1427.7 114.3 1378.3 164.7 1329.2 175.5C1280 186.3 1231 157.7 1181.8 154C1132.7 150.3 1083.3 171.7 1034 175.2C984.7 178.7 935.3 164.3 886 155.3C836.7 146.3 787.3 142.7 738.2 140.8C689 139 640 139 590.8 140.8C541.7 142.7 492.3 146.3 443 151.8C393.7 157.3 344.3 164.7 295.2 173.7C246 182.7 197 193.3 147.8 195.2C98.7 197 49.3 190 24.7 186.5L0 183Z" fill="#263141"></path><path d="M0 671L24.7 680C49.3 689 98.7 707 147.8 699.7C197 692.3 246 659.7 295.2 670.3C344.3 681 393.7 735 443 783.7C492.3 832.3 541.7 875.7 590.8 874C640 872.3 689 825.7 738.2 784.3C787.3 743 836.7 707 886 705.2C935.3 703.3 984.7 735.7 1034 732C1083.3 728.3 1132.7 688.7 1181.8 695.8C1231 703 1280 757 1329.2 758.8C1378.3 760.7 1427.7 710.3 1477 719.3C1526.3 728.3 1575.7 796.7 1624.8 836.2C1674 875.7 1723 886.3 1772.2 848.5C1821.3 810.7 1870.7 724.3 1895.3 681.2L1920 638L1920 561L1895.3 544.7C1870.7 528.3 1821.3 495.7 1772.2 459.7C1723 423.7 1674 384.3 1624.8 391.7C1575.7 399 1526.3 453 1477 458.3C1427.7 463.7 1378.3 420.3 1329.2 398.7C1280 377 1231 377 1181.8 427.3C1132.7 477.7 1083.3 578.3 1034 596.3C984.7 614.3 935.3 549.7 886 515.5C836.7 481.3 787.3 477.7 738.2 492C689 506.3 640 538.7 590.8 551.3C541.7 564 492.3 557 443 526.5C393.7 496 344.3 442 295.2 434.8C246 427.7 197 467.3 147.8 454.7C98.7 442 49.3 377 24.7 344.5L0 312Z" fill="#3e4c5f"></path><path d="M0 962L24.7 971C49.3 980 98.7 998 147.8 992.7C197 987.3 246 958.7 295.2 933.5C344.3 908.3 393.7 886.7 443 897.5C492.3 908.3 541.7 951.7 590.8 958.8C640 966 689 937 738.2 926.2C787.3 915.3 836.7 922.7 886 920.8C935.3 919 984.7 908 1034 904.3C1083.3 900.7 1132.7 904.3 1181.8 924.2C1231 944 1280 980 1329.2 987.2C1378.3 994.3 1427.7 972.7 1477 972.7C1526.3 972.7 1575.7 994.3 1624.8 1007C1674 1019.7 1723 1023.3 1772.2 1012.5C1821.3 1001.7 1870.7 976.3 1895.3 963.7L1920 951L1920 636L1895.3 679.2C1870.7 722.3 1821.3 808.7 1772.2 846.5C1723 884.3 1674 873.7 1624.8 834.2C1575.7 794.7 1526.3 726.3 1477 717.3C1427.7 708.3 1378.3 758.7 1329.2 756.8C1280 755 1231 701 1181.8 693.8C1132.7 686.7 1083.3 726.3 1034 730C984.7 733.7 935.3 701.3 886 703.2C836.7 705 787.3 741 738.2 782.3C689 823.7 640 870.3 590.8 872C541.7 873.7 492.3 830.3 443 781.7C393.7 733 344.3 679 295.2 668.3C246 657.7 197 690.3 147.8 697.7C98.7 705 49.3 687 24.7 678L0 669Z" fill="#263141"></path><path d="M0 1081L24.7 1081C49.3 1081 98.7 1081 147.8 1081C197 1081 246 1081 295.2 1081C344.3 1081 393.7 1081 443 1081C492.3 1081 541.7 1081 590.8 1081C640 1081 689 1081 738.2 1081C787.3 1081 836.7 1081 886 1081C935.3 1081 984.7 1081 1034 1081C1083.3 1081 1132.7 1081 1181.8 1081C1231 1081 1280 1081 1329.2 1081C1378.3 1081 1427.7 1081 1477 1081C1526.3 1081 1575.7 1081 1624.8 1081C1674 1081 1723 1081 1772.2 1081C1821.3 1081 1870.7 1081 1895.3 1081L1920 1081L1920 949L1895.3 961.7C1870.7 974.3 1821.3 999.7 1772.2 1010.5C1723 1021.3 1674 1017.7 1624.8 1005C1575.7 992.3 1526.3 970.7 1477 970.7C1427.7 970.7 1378.3 992.3 1329.2 985.2C1280 978 1231 942 1181.8 922.2C1132.7 902.3 1083.3 898.7 1034 902.3C984.7 906 935.3 917 886 918.8C836.7 920.7 787.3 913.3 738.2 924.2C689 935 640 964 590.8 956.8C541.7 949.7 492.3 906.3 443 895.5C393.7 884.7 344.3 906.3 295.2 931.5C246 956.7 197 985.3 147.8 990.7C98.7 996 49.3 978 24.7 969L0 960Z" fill="#191f29"></path></svg>